<?xml version="1.0" encoding="utf-8"?>
<!-- Generator: Adobe Illustrator 27.4.0, SVG Export Plug-In . SVG Version: 6.00 Build 0)  -->
<svg version="1.1" id="Layer_1" xmlns="http://www.w3.org/2000/svg" xmlns:xlink="http://www.w3.org/1999/xlink" x="0px" y="0px"
	 viewBox="0 0 306.14 181.38" style="enable-background:new 0 0 306.14 181.38;" xml:space="preserve">
<style type="text/css">
	.st0{fill:#FFFFFF;}
</style>
<g>
	<path class="st0" d="M3,23.64C3,9.21,11.58,0.81,25.37,0.81c13.51,0,22.19,8.4,22.19,22.83c0,14.24-8.4,22.92-22.19,22.92
		C11.3,46.56,3,37.88,3,23.64z M15.41,23.55c0,7.85,2.83,12.42,9.86,12.42c6.94,0,9.86-4.57,9.86-12.42
		c0-7.85-3.01-12.33-9.86-12.33S15.41,15.7,15.41,23.55z"/>
</g>
<g>
	<path class="st0" d="M79.15,46.56c-7.21,0-11.87-5.02-14.06-12.6h-0.73v25.2H51.94V2h12.42v10.96h0.82
		c2.28-7.58,7.03-12.14,13.97-12.14c9.5,0,14.88,8.04,14.88,22.92C94.03,38.61,88.46,46.56,79.15,46.56z M81.8,23.73
		c0-7.94-2.65-11.69-8.58-11.69c-5.48,0-8.86,3.93-8.86,10.14v3.38c0,6.03,3.47,10.04,8.77,10.04C79.15,35.6,81.8,31.68,81.8,23.73z
		"/>
</g>
<g>
	<path class="st0" d="M96.32,24.55c0-14.97,8.13-23.74,22.19-23.74c13.33,0,19.63,7.85,19.63,19.81c0,1.83-0.09,3.56-0.27,5.84
		h-29.31c0.73,6.94,3.93,10.04,9.86,10.04c5.84,0,7.67-2.74,8.77-6.03l10.41,2.83c-1.92,7.49-6.94,13.15-19.27,13.15
		C105.26,46.47,96.32,39.25,96.32,24.55z M108.64,20.17h18.08c-0.18-6.76-3.01-10.04-8.58-10.04
		C112.48,10.13,109.28,13.05,108.64,20.17z"/>
</g>
<g>
	<path class="st0" d="M155.12,45.28H142.7V2h12.14v11.6h0.82c2.56-8.4,7.85-12.78,14.61-12.78c8.31,0,12.51,5.75,12.51,15.16v29.31
		h-12.42V19.44c0-4.38-2.01-7.4-6.57-7.4c-5.3,0-8.67,3.74-8.67,9.13V45.28z"/>
</g>
<g>
	<path class="st0" d="M25,77.63c-5.75,0-9.31,3.65-9.31,11.87c0,7.67,3.1,12.14,9.5,12.14c5.57,0,7.67-3.74,8.58-8.22l11.41,2.74
		c-1.46,10.04-7.58,16.34-19.91,16.34C11.58,112.51,3,104.93,3,90.14c0-14.7,8.4-23.38,22.19-23.38c12.87,0,18.35,6.12,19.91,16.62
		l-11.5,2.19C32.49,80.91,30.48,77.63,25,77.63z"/>
</g>
<g>
	<path class="st0" d="M47.74,89.59c0-14.43,8.58-22.83,22.37-22.83c13.51,0,22.19,8.4,22.19,22.83c0,14.24-8.4,22.92-22.19,22.92
		C56.05,112.51,47.74,103.83,47.74,89.59z M60.16,89.5c0,7.85,2.83,12.42,9.86,12.42c6.94,0,9.86-4.57,9.86-12.42
		c0-7.85-3.01-12.33-9.86-12.33C63.17,77.17,60.16,81.64,60.16,89.5z"/>
</g>
<g>
	<path class="st0" d="M109.1,111.23H96.68V67.95h12.14v11.6h0.82c2.56-8.4,7.85-12.78,14.61-12.78c8.31,0,12.51,5.75,12.51,15.16
		v29.31h-12.42V85.39c0-4.38-2.01-7.4-6.57-7.4c-5.3,0-8.67,3.74-8.67,9.13V111.23z"/>
</g>
<g>
	<path class="st0" d="M162.79,77.63c-5.75,0-9.31,3.65-9.31,11.87c0,7.67,3.1,12.14,9.5,12.14c5.57,0,7.67-3.74,8.58-8.22
		l11.41,2.74c-1.46,10.04-7.58,16.34-19.91,16.34c-13.7,0-22.28-7.58-22.28-22.37c0-14.7,8.4-23.38,22.19-23.38
		c12.87,0,18.35,6.12,19.91,16.62l-11.5,2.19C170.28,80.91,168.27,77.63,162.79,77.63z"/>
</g>
<g>
	<path class="st0" d="M185.53,90.5c0-14.97,8.13-23.74,22.19-23.74c13.33,0,19.63,7.85,19.63,19.81c0,1.83-0.09,3.56-0.27,5.84
		h-29.31c0.73,6.94,3.93,10.04,9.86,10.04c5.84,0,7.67-2.74,8.77-6.03l10.41,2.83c-1.92,7.49-6.94,13.15-19.27,13.15
		C194.48,112.42,185.53,105.2,185.53,90.5z M197.86,86.12h18.08c-0.18-6.76-3.01-10.04-8.58-10.04
		C201.69,76.07,198.49,79,197.86,86.12z"/>
</g>
<g>
	<path class="st0" d="M259.12,112.51c-7.21,0-11.87-5.02-14.06-12.6h-0.73v25.2h-12.42V67.95h12.42v10.96h0.82
		c2.28-7.58,7.03-12.14,13.97-12.14c9.5,0,14.88,8.04,14.88,22.92C274.01,104.56,268.44,112.51,259.12,112.51z M261.77,89.68
		c0-7.94-2.65-11.69-8.58-11.69c-5.48,0-8.86,3.93-8.86,10.14v3.38c0,6.03,3.47,10.04,8.77,10.04
		C259.12,101.55,261.77,97.62,261.77,89.68z"/>
</g>
<g>
	<path class="st0" d="M280.68,77.81h-5.3v-9.86h5.3V56.81h12.42v11.14h11.41v9.86h-11.41v17.81c0,3.47,1.28,5.2,5.02,5.2
		c1.92,0,4.02-0.55,5.66-1.1l1.37,11.14c-3.29,1-5.48,1.64-10.23,1.64c-10.04,0-14.24-6.67-14.24-14.88V77.81z"/>
</g>
<g>
	<path class="st0" d="M17.7,178.7H5.28v-58.62H17.7V178.7z"/>
</g>
<g>
	<path class="st0" d="M49.93,168.38h-1.1c-2.19,6.85-6.76,11.23-14.15,11.23c-7.3,0-12.69-3.74-12.69-12.24
		c0-7.76,4.57-13.15,15.98-13.15h11.32v-3.01c0-4.47-1.92-7.03-6.67-7.03c-4.11,0-6.48,2.01-7.3,6.21l-11.69-2.65
		c1.46-7.85,7.49-13.42,19.45-13.42c13.15,0,18.54,6.03,18.54,16.89v27.48H49.93V168.38z M49.29,162.08v-1.73h-8.95
		c-4.02,0-6.57,1.83-6.57,4.84c0,2.74,1.55,4.93,6.3,4.93C45.73,170.12,49.29,166.74,49.29,162.08z"/>
</g>
<g>
	<path class="st0" d="M80.43,146.38h0.82c2.28-7.58,7.03-12.14,13.97-12.14c9.5,0,14.88,8.04,14.88,22.92
		c0,14.88-5.57,22.83-14.88,22.83c-7.21,0-11.87-5.02-14.06-12.6h-0.73v11.32H68.01v-58.62h12.42V146.38z M97.87,157.15
		c0-7.94-2.65-11.69-8.58-11.69c-5.48,0-8.86,3.93-8.86,10.14v3.38c0,6.03,3.47,10.04,8.77,10.04
		C95.22,169.02,97.87,165.09,97.87,157.15z"/>
</g>
</svg>
