<?xml version="1.0" encoding="utf-8"?>
<!-- Generator: Adobe Illustrator 27.4.0, SVG Export Plug-In . SVG Version: 6.00 Build 0)  -->
<svg version="1.1" id="Layer_1" xmlns="http://www.w3.org/2000/svg" xmlns:xlink="http://www.w3.org/1999/xlink" x="0px" y="0px"
	 viewBox="0 0 595.28 256.21" style="enable-background:new 0 0 595.28 256.21;" xml:space="preserve">
<style type="text/css">
	.st0{fill:#3F27FF;}
	.st1{fill:#FFFFFF;}
</style>
<g>
	<circle class="st0" cx="127.8" cy="128.11" r="128.11"/>
</g>
<path class="st1" d="M293.12,57.67c0-14.43,8.58-22.83,22.37-22.83c13.51,0,22.19,8.4,22.19,22.83c0,14.24-8.4,22.92-22.19,22.92
	C301.43,80.58,293.12,71.91,293.12,57.67z M305.54,57.57c0,7.85,2.83,12.42,9.86,12.42c6.94,0,9.86-4.57,9.86-12.42
	c0-7.85-3.01-12.33-9.86-12.33C308.56,45.25,305.54,49.72,305.54,57.57z"/>
<path class="st1" d="M369.28,80.58c-7.21,0-11.87-5.02-14.06-12.6h-0.73v25.2h-12.42V36.02h12.42v10.96h0.82
	c2.28-7.58,7.03-12.14,13.97-12.14c9.5,0,14.88,8.04,14.88,22.92C384.16,72.64,378.59,80.58,369.28,80.58z M371.93,57.76
	c0-7.94-2.65-11.69-8.58-11.69c-5.48,0-8.86,3.93-8.86,10.14v3.38c0,6.03,3.47,10.04,8.77,10.04
	C369.28,69.63,371.93,65.7,371.93,57.76z"/>
<path class="st1" d="M386.45,58.58c0-14.97,8.13-23.74,22.19-23.74c13.33,0,19.63,7.85,19.63,19.81c0,1.83-0.09,3.56-0.27,5.84
	h-29.31c0.73,6.94,3.93,10.04,9.86,10.04c5.84,0,7.67-2.74,8.77-6.03l10.41,2.83c-1.92,7.49-6.94,13.15-19.27,13.15
	C395.39,80.49,386.45,73.28,386.45,58.58z M398.77,54.2h18.08c-0.18-6.76-3.01-10.04-8.58-10.04
	C402.61,44.15,399.41,47.07,398.77,54.2z"/>
<path class="st1" d="M445.25,79.31h-12.42V36.02h12.14v11.6h0.82c2.56-8.4,7.85-12.78,14.61-12.78c8.31,0,12.51,5.75,12.51,15.16
	v29.31H460.5V53.46c0-4.38-2.01-7.4-6.57-7.4c-5.3,0-8.67,3.74-8.67,9.13V79.31z"/>
<path class="st1" d="M315.13,111.65c-5.75,0-9.31,3.65-9.31,11.87c0,7.67,3.1,12.14,9.5,12.14c5.57,0,7.67-3.74,8.58-8.22
	l11.41,2.74c-1.46,10.04-7.58,16.34-19.91,16.34c-13.7,0-22.28-7.58-22.28-22.37c0-14.7,8.4-23.38,22.19-23.38
	c12.87,0,18.35,6.12,19.91,16.62l-11.5,2.19C322.62,114.94,320.61,111.65,315.13,111.65z"/>
<path class="st1" d="M337.87,123.61c0-14.43,8.58-22.83,22.37-22.83c13.51,0,22.19,8.4,22.19,22.83c0,14.24-8.4,22.92-22.19,22.92
	C346.18,146.53,337.87,137.86,337.87,123.61z M350.29,123.52c0,7.85,2.83,12.42,9.86,12.42c6.94,0,9.86-4.57,9.86-12.42
	c0-7.85-3.01-12.33-9.86-12.33C353.3,111.2,350.29,115.67,350.29,123.52z"/>
<path class="st1" d="M399.23,145.25h-12.42v-43.28h12.14v11.6h0.82c2.56-8.4,7.85-12.78,14.61-12.78c8.31,0,12.51,5.75,12.51,15.16
	v29.31h-12.42v-25.84c0-4.38-2.01-7.4-6.57-7.4c-5.3,0-8.67,3.74-8.67,9.13V145.25z"/>
<path class="st1" d="M452.92,111.65c-5.75,0-9.31,3.65-9.31,11.87c0,7.67,3.1,12.14,9.5,12.14c5.57,0,7.67-3.74,8.58-8.22
	l11.41,2.74c-1.46,10.04-7.58,16.34-19.91,16.34c-13.7,0-22.28-7.58-22.28-22.37c0-14.7,8.4-23.38,22.19-23.38
	c12.87,0,18.35,6.12,19.91,16.62l-11.5,2.19C460.41,114.94,458.4,111.65,452.92,111.65z"/>
<path class="st1" d="M475.66,124.53c0-14.97,8.13-23.74,22.19-23.74c13.33,0,19.63,7.85,19.63,19.81c0,1.83-0.09,3.56-0.27,5.84
	h-29.31c0.73,6.94,3.93,10.04,9.86,10.04c5.84,0,7.67-2.74,8.77-6.03l10.41,2.83c-1.92,7.49-6.94,13.15-19.27,13.15
	C484.61,146.44,475.66,139.23,475.66,124.53z M487.98,120.14h18.08c-0.18-6.76-3.01-10.04-8.58-10.04
	C491.82,110.1,488.62,113.02,487.98,120.14z"/>
<path class="st1" d="M549.25,146.53c-7.21,0-11.87-5.02-14.06-12.6h-0.73v25.2h-12.42v-57.16h12.42v10.96h0.82
	c2.28-7.58,7.03-12.14,13.97-12.14c9.5,0,14.88,8.04,14.88,22.92C564.14,138.59,558.57,146.53,549.25,146.53z M551.9,123.7
	c0-7.94-2.65-11.69-8.58-11.69c-5.48,0-8.86,3.93-8.86,10.14v3.38c0,6.03,3.47,10.04,8.77,10.04
	C549.25,135.58,551.9,131.65,551.9,123.7z"/>
<path class="st1" d="M570.8,111.83h-5.3v-9.86h5.3V90.83h12.42v11.14h11.41v9.86h-11.41v17.81c0,3.47,1.28,5.2,5.02,5.2
	c1.92,0,4.02-0.55,5.66-1.1l1.37,11.14c-3.29,1-5.48,1.64-10.23,1.64c-10.04,0-14.24-6.67-14.24-14.88V111.83z"/>
<path class="st1" d="M307.83,212.72h-12.42V154.1h12.42V212.72z"/>
<path class="st1" d="M340.06,202.41h-1.1c-2.19,6.85-6.76,11.23-14.15,11.23c-7.3,0-12.69-3.74-12.69-12.24
	c0-7.76,4.57-13.15,15.98-13.15h11.32v-3.01c0-4.47-1.92-7.03-6.67-7.03c-4.11,0-6.48,2.01-7.3,6.21l-11.69-2.65
	c1.46-7.85,7.49-13.42,19.45-13.42c13.15,0,18.54,6.03,18.54,16.89v27.48h-11.69V202.41z M339.42,196.11v-1.73h-8.95
	c-4.02,0-6.57,1.83-6.57,4.84c0,2.74,1.55,4.93,6.3,4.93C335.86,204.14,339.42,200.76,339.42,196.11z"/>
<path class="st1" d="M370.56,180.4h0.82c2.28-7.58,7.03-12.14,13.97-12.14c9.5,0,14.88,8.04,14.88,22.92
	c0,14.88-5.57,22.83-14.88,22.83c-7.21,0-11.87-5.02-14.06-12.6h-0.73v11.32h-12.42V154.1h12.42V180.4z M388,191.17
	c0-7.94-2.65-11.69-8.58-11.69c-5.48,0-8.86,3.93-8.86,10.14V193c0,6.03,3.47,10.04,8.77,10.04C385.35,203.05,388,199.12,388,191.17
	z"/>
</svg>
